<svg width="24" height="25" viewBox="0 0 24 25" fill="none" xmlns="http://www.w3.org/2000/svg"><path d="M7.172 3.02l3.242 3.243h3.171l3.243-3.242a1 1 0 1 1 1.415 1.415l-1.829 1.827H18.5a3.5 3.5 0 0 1 3.5 3.5v8a3.5 3.5 0 0 1-3.5 3.5h-13a3.5 3.5 0 0 1-3.5-3.5v-8a3.5 3.5 0 0 1 3.5-3.5h2.085L5.757 4.434A1 1 0 1 1 7.172 3.02v.001zM18.5 8.263h-13A1.5 1.5 0 0 0 4.007 9.62L4 9.763v8a1.5 1.5 0 0 0 1.356 1.493l.144.007h13a1.5 1.5 0 0 0 1.493-1.356l.007-.144v-8a1.5 1.5 0 0 0-1.5-1.5zm-10.5 3a1 1 0 0 1 1 1v2a1 1 0 1 1-2 0v-2a1 1 0 0 1 1-1zm8 0a1 1 0 0 1 1 1v2a1 1 0 0 1-2 0v-2a1 1 0 0 1 1-1z" fill="#fff"/></svg>