<svg width="20" height="20" viewBox="0 0 20 20" fill="none" xmlns="http://www.w3.org/2000/svg">
<path d="M3.33333 3H16.6667C16.7551 3 16.8399 3.03512 16.9024 3.09763C16.9649 3.16014 17 3.24493 17 3.33333V16.6667C17 16.7551 16.9649 16.8399 16.9024 16.9024L17.2559 17.2559L16.9024 16.9024C16.8399 16.9649 16.7551 17 16.6667 17H3.33333C3.24493 17 3.16014 16.9649 3.09763 16.9024C3.03512 16.8399 3 16.7551 3 16.6667V3.33333C3 3.24493 3.03512 3.16014 3.09763 3.09763C3.16014 3.03512 3.24493 3 3.33333 3Z" stroke="#7352FA"/>
</svg>
