<svg width="16" height="17" viewBox="0 0 16 17" fill="none" xmlns="http://www.w3.org/2000/svg">
<path d="M12.68 17C12.44 16.52 12.14 15.992 11.78 15.416C11.444 14.84 11.072 14.252 10.664 13.652C10.256 13.028 9.824 12.416 9.368 11.816C8.936 11.216 8.504 10.652 8.072 10.124C7.64 10.676 7.184 11.252 6.704 11.852C6.224 12.452 5.756 13.064 5.3 13.688C4.868 14.288 4.46 14.876 4.076 15.452C3.692 16.028 3.368 16.544 3.104 17H0.044C0.836 15.56 1.796 14.084 2.924 12.572C4.076 11.036 5.204 9.584 6.308 8.216L0.296 0.295999H3.644L8.144 6.128L12.284 0.295999H15.452L9.944 8.036C11.024 9.452 12.104 10.928 13.184 12.464C14.288 14 15.224 15.512 15.992 17H12.68Z" fill="black"/>
</svg>
