<svg width="24" height="25" viewBox="0 0 24 25" fill="none" xmlns="http://www.w3.org/2000/svg"><path d="M10.151 11.816c.577 0 1.044.432 1.033.96 0 .53-.455.962-1.033.962-.567 0-1.034-.433-1.034-.961 0-.529.456-.961 1.034-.961zm3.698 0c.578 0 1.034.432 1.034.96 0 .53-.456.962-1.034.962-.567 0-1.033-.433-1.033-.961 0-.529.455-.961 1.033-.961zm4.773-8.649c1.118 0 2.027.928 2.027 2.079v18.102l-2.125-1.917-1.196-1.13-1.266-1.202.525 1.867H5.377c-1.117 0-2.026-.928-2.026-2.078V5.246c0-1.15.91-2.079 2.027-2.079h13.244zm-3.815 13.178c2.184-.07 3.025-1.534 3.025-1.534 0-3.249-1.424-5.883-1.424-5.883-1.422-1.089-2.777-1.059-2.777-1.059l-.139.162c1.681.524 2.461 1.282 2.461 1.282a7.941 7.941 0 0 0-4.97-.95c-.06 0-.11.01-.169.02-.346.031-1.187.162-2.244.636-.365.171-.583.294-.583.294s.82-.798 2.6-1.323l-.1-.12S9.133 7.84 7.71 8.93c0 0-1.423 2.632-1.423 5.881 0 0 .83 1.463 3.015 1.534 0 0 .365-.454.663-.837-1.256-.384-1.73-1.192-1.73-1.192s.098.071.276.172c.01.01.019.02.039.03.03.021.06.03.09.051.246.141.493.252.72.343.406.162.89.323 1.454.434a6.785 6.785 0 0 0 2.56.01 6.41 6.41 0 0 0 1.433-.433 5.677 5.677 0 0 0 1.137-.596s-.494.827-1.79 1.201c.297.384.654.817.654.817h-.001z" fill="#fff"/></svg>