<svg width="20" height="16" viewBox="0 0 20 16" fill="none" xmlns="http://www.w3.org/2000/svg">
<path d="M0.984192 8C1.76753 3.73333 5.50669 0.5 10 0.5C14.4934 0.5 18.2317 3.73333 19.0159 8C18.2325 12.2667 14.4934 15.5 10 15.5C5.50669 15.5 1.76836 12.2667 0.984192 8ZM10 12.1667C11.1051 12.1667 12.1649 11.7277 12.9463 10.9463C13.7277 10.1649 14.1667 9.10507 14.1667 8C14.1667 6.89493 13.7277 5.83512 12.9463 5.05372C12.1649 4.27232 11.1051 3.83333 10 3.83333C8.89496 3.83333 7.83515 4.27232 7.05375 5.05372C6.27235 5.83512 5.83336 6.89493 5.83336 8C5.83336 9.10507 6.27235 10.1649 7.05375 10.9463C7.83515 11.7277 8.89496 12.1667 10 12.1667ZM10 10.5C9.33698 10.5 8.7011 10.2366 8.23226 9.76777C7.76342 9.29893 7.50003 8.66304 7.50003 8C7.50003 7.33696 7.76342 6.70107 8.23226 6.23223C8.7011 5.76339 9.33698 5.5 10 5.5C10.6631 5.5 11.299 5.76339 11.7678 6.23223C12.2366 6.70107 12.5 7.33696 12.5 8C12.5 8.66304 12.2366 9.29893 11.7678 9.76777C11.299 10.2366 10.6631 10.5 10 10.5Z" fill="white"/>
</svg>
