<!-- Generated by IcoMoon.io -->
<svg version="1.1" xmlns="http://www.w3.org/2000/svg" width="2560" height="512" viewBox="0 0 2560 512">
<path fill="#fff" d="M558.978 29.945l-162.541 402.531 132.311 79.524 59.962-135.976 59.962 11.289 48.068 79.524 150.15-68.233-179.883-334.789-108.030-33.871zM595.153 301.899l17.839-107.996 30.23 113.396-48.068-5.399zM348.369 17.672l-59.959 136.958-90.19-154.631-198.219 71.67 144.204 208.138v208.63l198.219-11.783v-196.356l113.976-208.629-108.030-53.998zM1418.257 29.945l-162.043 403.022 132.312 79.524 59.961-135.976 59.961 11.289 48.069 79.524 150.15-68.233-180.38-335.279-108.030-33.871zM1454.432 301.899l17.841-107.996 30.227 113.396-48.069-5.399zM2379.626 63.816l-108.032-33.871-162.048 403.022 132.309 79.524 59.968-135.976 59.947 11.289 48.086 79.524 150.144-68.233-180.374-335.279zM2307.776 301.899l17.834-107.996 30.229 113.396-48.064-5.399zM1117.957 29.945l-30.229 184.575-65.907-5.891-17.839-166.903-150.153 24.053 30.23 416.768 144.205 29.944-11.894-136.958 72.35-17.673-5.947 131.067 138.259 11.783 36.175-446.712-139.249-24.054zM1971.29 29.945l-30.229 184.575-65.907-5.891-17.839-166.903-150.152 24.053 30.229 416.768 144.205 29.944-11.893-136.958 72.35-17.673-5.947 131.067 138.259 11.783 36.175-446.712-139.249-24.054z"></path>
</svg>
