<svg width="15" height="14" viewBox="0 0 15 14" fill="none" xmlns="http://www.w3.org/2000/svg">
<path d="M5.19115 5.63327L3.27315 3.71727L1.62382 5.36661L0.681152 4.42394L4.92382 0.181274L5.86649 1.12394L4.21649 2.77394L6.13382 4.69127C7.14242 3.92233 8.40554 3.56542 9.6674 3.69279C10.9293 3.82017 12.0956 4.42232 12.9302 5.37731C13.7647 6.33231 14.2052 7.56877 14.1624 8.83633C14.1196 10.1039 13.5967 11.3078 12.6995 12.2043C11.8024 13.1008 10.5981 13.6229 9.33053 13.6648C8.06294 13.7067 6.82679 13.2654 5.87238 12.4301C4.91798 11.5948 4.31665 10.4281 4.19017 9.16615C4.06369 7.90419 4.4215 6.64133 5.19115 5.63327Z" fill="white"/>
</svg>
