<svg width="17" height="18" viewBox="0 0 17 18" fill="none" xmlns="http://www.w3.org/2000/svg">
<path d="M1.16671 17.3333C0.945694 17.3333 0.733732 17.2455 0.577452 17.0892C0.421172 16.9329 0.333374 16.721 0.333374 16.5V1.49996C0.333374 1.27895 0.421172 1.06698 0.577452 0.910704C0.733732 0.754423 0.945694 0.666626 1.16671 0.666626H12.8334C13.0544 0.666626 13.2663 0.754423 13.4226 0.910704C13.5789 1.06698 13.6667 1.27895 13.6667 1.49996V3.99996H12V2.33329H2.00004V15.6666H12V14H13.6667V16.5C13.6667 16.721 13.5789 16.9329 13.4226 17.0892C13.2663 17.2455 13.0544 17.3333 12.8334 17.3333H1.16671ZM12 12.3333V9.83329H6.16671V8.16663H12V5.66663L16.1667 8.99996L12 12.3333Z" fill="white"/>
</svg>
