<svg width="18" height="18" viewBox="0 0 18 18" fill="none" xmlns="http://www.w3.org/2000/svg">
<path d="M9.09913 17.3332C4.49663 17.3332 0.765793 13.6023 0.765793 8.99984C0.765793 4.39734 4.49663 0.666504 9.09913 0.666504C13.7016 0.666504 17.4325 4.39734 17.4325 8.99984C17.4325 13.6023 13.7016 17.3332 9.09913 17.3332ZM8.26579 11.4998V13.1665H9.93246V11.4998H8.26579ZM9.93246 10.129C10.6022 9.92715 11.1771 9.49146 11.5526 8.90129C11.9281 8.31112 12.079 7.60572 11.9781 6.91356C11.8771 6.2214 11.5309 5.58854 11.0025 5.13022C10.4741 4.6719 9.79861 4.41862 9.09913 4.4165C8.42484 4.41645 7.77135 4.64997 7.24979 5.07733C6.72823 5.5047 6.3708 6.09953 6.23829 6.76067L7.87329 7.08817C7.91969 6.85603 8.03106 6.64184 8.19443 6.47052C8.35781 6.2992 8.56647 6.17779 8.79615 6.12043C9.02582 6.06306 9.26707 6.0721 9.49181 6.14648C9.71655 6.22086 9.91555 6.35754 10.0657 6.5406C10.2158 6.72366 10.3108 6.94558 10.3397 7.18054C10.3686 7.4155 10.3302 7.65384 10.2289 7.86782C10.1277 8.08181 9.96774 8.26264 9.76773 8.38928C9.56772 8.51592 9.33586 8.58316 9.09913 8.58317C8.87811 8.58317 8.66615 8.67097 8.50987 8.82725C8.35359 8.98353 8.26579 9.19549 8.26579 9.4165V10.6665H9.93246V10.129Z" fill="white" fill-opacity="0.6"/>
</svg>
