<svg width="11" height="16" viewBox="0 0 11 16" fill="none" xmlns="http://www.w3.org/2000/svg">
<path d="M4.83327 10.6226C3.57722 10.4523 2.43271 9.81143 1.63117 8.8295C0.829632 7.84757 0.430889 6.5979 0.515576 5.33319C0.600262 4.06848 1.16206 2.88313 2.08736 2.01683C3.01265 1.15053 4.2324 0.667929 5.49994 0.666628C6.76902 0.665405 7.99109 1.14681 8.91838 2.01325C9.84567 2.87969 10.4088 4.06632 10.4936 5.33257C10.5784 6.59882 10.1785 7.84993 9.37499 8.83227C8.5715 9.8146 7.42452 10.4546 6.1666 10.6226V12H9.49994V13.3333H6.1666V16H4.83327V13.3333H1.49994V12H4.83327V10.6226Z" fill="white"/>
</svg>
