<svg width="14" height="13" viewBox="0 0 14 13" fill="none" xmlns="http://www.w3.org/2000/svg">
<path d="M11.2239 1.33333H8.16656V0H13.4999V5.33333H12.1666V2.276L9.80856 4.634C10.5778 5.64235 10.9351 6.90533 10.8081 8.16722C10.6812 9.42911 10.0794 10.5956 9.1247 11.4305C8.16999 12.2654 6.9337 12.7062 5.66615 12.6638C4.3986 12.6215 3.19452 12.099 2.29772 11.2022C1.40093 10.3054 0.878435 9.1013 0.836048 7.83375C0.793661 6.5662 1.23454 5.3299 2.06942 4.3752C2.90431 3.4205 4.07079 2.81874 5.33268 2.69176C6.59457 2.56479 7.85755 2.9221 8.8659 3.69133L11.2239 1.33333Z" fill="white"/>
</svg>
