<svg width="16" height="19" viewBox="0 0 16 19" fill="none" xmlns="http://www.w3.org/2000/svg">
<path d="M13 6.66671H14.6667C14.8877 6.66671 15.0996 6.7545 15.2559 6.91079C15.4122 7.06707 15.5 7.27903 15.5 7.50004V17.5C15.5 17.7211 15.4122 17.933 15.2559 18.0893C15.0996 18.2456 14.8877 18.3334 14.6667 18.3334H1.33333C1.11232 18.3334 0.900358 18.2456 0.744078 18.0893C0.587797 17.933 0.5 17.7211 0.5 17.5V7.50004C0.5 7.27903 0.587797 7.06707 0.744078 6.91079C0.900358 6.7545 1.11232 6.66671 1.33333 6.66671H3V5.83337C3 4.50729 3.52678 3.23552 4.46447 2.29784C5.40215 1.36016 6.67392 0.833374 8 0.833374C9.32608 0.833374 10.5979 1.36016 11.5355 2.29784C12.4732 3.23552 13 4.50729 13 5.83337V6.66671ZM2.16667 8.33337V16.6667H13.8333V8.33337H2.16667ZM7.16667 11.6667H8.83333V13.3334H7.16667V11.6667ZM3.83333 11.6667H5.5V13.3334H3.83333V11.6667ZM10.5 11.6667H12.1667V13.3334H10.5V11.6667ZM11.3333 6.66671V5.83337C11.3333 4.94932 10.9821 4.10147 10.357 3.47635C9.7319 2.85123 8.88406 2.50004 8 2.50004C7.11594 2.50004 6.2681 2.85123 5.64298 3.47635C5.01786 4.10147 4.66667 4.94932 4.66667 5.83337V6.66671H11.3333Z" fill="white"/>
</svg>
